<?xml version="1.0" encoding="utf-8"?>
<!-- Generator: Adobe Illustrator 16.0.0, SVG Export Plug-In . SVG Version: 6.00 Build 0)  -->
<!DOCTYPE svg PUBLIC "-//W3C//DTD SVG 1.0//EN" "http://www.w3.org/TR/2001/REC-SVG-20010904/DTD/svg10.dtd">
<svg version="1.0" id="Layer_1" xmlns="http://www.w3.org/2000/svg" xmlns:xlink="http://www.w3.org/1999/xlink" x="0px" y="0px"
	 width="100px" height="100px" viewBox="0 0 100 100" enable-background="new 0 0 100 100" xml:space="preserve">
<path fill="#FFC400" d="M66.507,71.826c3.402,3.404,8.486,4.021,12.556,1.949L85.286,80L90,75.286l-6.225-6.224
	c2.07-4.068,1.455-9.152-1.949-12.556c-4.229-4.231-11.092-4.231-15.319,0C62.275,60.736,62.275,67.598,66.507,71.826z"/>
<path fill="#FFC400" d="M90,46.667H43.995l-27.328,5.465v11.201h11.166c1.877-3.929,5.854-6.666,10.5-6.666
	c4.645,0,8.623,2.737,10.501,6.666h7.833V70h-6.836c-0.814,5.645-5.627,10-11.498,10s-10.684-4.355-11.5-10H10V46.667L43.333,40
	l20-20H90V46.667z"/>
<path fill="#FFF8E1" d="M56.667,63.333h-7.833c-1.878-3.929-5.856-6.666-10.501-6.666c-4.646,0-8.623,2.737-10.5,6.666H16.667
	V52.132l27.328-5.465h12.672V63.333z"/>
<circle fill="#FFF8E1" cx="38.333" cy="68.333" r="5"/>
<polygon fill="#FFF8E1" points="52.762,40 83.333,40 83.333,26.667 66.094,26.667 "/>
<circle fill="#FFF8E1" cx="74.167" cy="64.167" r="4.167"/>
</svg>
