<?xml version="1.0" encoding="UTF-8"?>
<!DOCTYPE svg PUBLIC "-//W3C//DTD SVG 1.1//EN" "http://www.w3.org/Graphics/SVG/1.1/DTD/svg11.dtd">
<!-- Creator: CorelDRAW -->
<svg xmlns="http://www.w3.org/2000/svg" xml:space="preserve" width="2048px" height="2048px" style="shape-rendering:geometricPrecision; text-rendering:geometricPrecision; image-rendering:optimizeQuality; fill-rule:evenodd; clip-rule:evenodd"
viewBox="0 0 2048 2048"
 xmlns:xlink="http://www.w3.org/1999/xlink">
 <defs>
  <style type="text/css">
   <![CDATA[
    .fil2 {fill:none}
    .fil1 {fill:#212121;fill-rule:nonzero}
    .fil0 {fill:#66BB6A;fill-rule:nonzero}
   ]]>
  </style>
 </defs>
 <g id="Layer_x0020_1">
  <metadata id="CorelCorpID_0Corel-Layer"/>
  <g id="_475111800">
   <path id="_475111176" class="fil0" d="M1219.08 1278.97c-53.1355,53.1355 -79.7044,122.779 -79.7044,192.417 0,69.6378 26.5689,139.282 79.7044,192.416 53.1355,53.1355 122.778,79.7044 192.416,79.7044 69.6378,0 139.282,-26.5689 192.417,-79.7044 53.1355,-53.1355 79.7032,-122.778 79.7044,-192.417 0,-69.6378 -26.5689,-139.282 -79.7044,-192.416 -53.1343,-53.1355 -122.778,-79.7044 -192.416,-79.7044 -69.639,0.0011811 -139.282,26.5689 -192.417,79.7044zm-127.7 192.417c0,-81.9249 31.2532,-163.853 93.7583,-226.358 62.5052,-62.5052 144.432,-93.7572 226.358,-93.7583 81.9249,0 163.853,31.2532 226.357,93.7583 62.5052,62.504 93.7583,144.432 93.7583,226.357 -0.0011811,81.926 -31.2532,163.853 -93.7583,226.358 -62.5052,62.5052 -144.434,93.7583 -226.358,93.7583 -81.9249,0 -163.852,-31.2532 -226.357,-93.7583 -62.5052,-62.5052 -93.7583,-144.432 -93.7583,-226.357z"/>
   <polygon id="_475111368" class="fil0" points="1435.5,1279.39 1435.5,1663.39 1387.5,1663.39 1387.5,1279.39 "/>
   <polygon id="_475111536" class="fil0" points="1219.5,1447.39 1603.5,1447.39 1603.5,1495.39 1219.5,1495.39 "/>
  </g>
  <g id="_475111464">
   <path id="_475111296" class="fil1" d="M657.395 1072.86l42.8209 0c6.48071,0 12.3614,2.57008 16.6795,6.74646 18.7004,15.1406 38.3114,27.241 58.5709,35.4189 18.8823,7.62284 38.4343,11.8075 58.4422,11.8075 20.0079,0 39.5599,-4.18465 58.4445,-11.8075 20.8004,-8.39646 40.9146,-20.9256 60.0638,-36.6343l15.1878 18.4689 -15.2221 -18.5551c4.46811,-3.66496 9.86221,-5.44725 15.2221,-5.44489l0.056693 0 42.7618 0c91.7375,0 175.301,36.691 236.738,96.1111 -14.4662,7.87205 -28.3973,16.8083 -41.6847,26.7555 -51.913,-46.4977 -120.34,-74.8666 -195.053,-74.8666l-34.5532 0c-20.8606,16.2307 -42.8315,29.3693 -65.7036,38.6032 -24.5811,9.92245 -50.0894,15.3697 -76.2579,15.3697 -26.1685,0 -51.6756,-5.44725 -76.2556,-15.3697 -22.8709,-9.23268 -44.8418,-22.3725 -65.7024,-38.6032l-34.5555 0c-80.5512,0 -153.8,32.9729 -206.919,86.0918 -53.1189,53.1189 -86.0906,126.369 -86.0906,206.92l0 166.208 720.539 0c5.48032,16.487 12.2091,32.5311 20.1272,48l-764.666 0c-13.2543,0 -24,-10.7457 -24,-24l0 -190.208c0,-93.802 38.3575,-179.062 100.153,-240.858 61.7953,-61.7953 147.054,-100.154 240.856,-100.154z"/>
   <path id="_475111776" class="fil1" d="M833.909 256.5c100.207,0 191.03,24.1795 255.215,75.5032 59.0516,47.2217 95.1072,116.352 95.1072,209.438 0,102.511 -45.0461,239.701 -116.323,343.111 -61.4764,89.1898 -143.059,154.317 -233.999,154.317 -90.9402,0 -172.523,-65.1272 -233.999,-154.316 -71.276,-103.41 -116.322,-240.598 -116.322,-343.112 0,-93.0863 36.0555,-162.217 95.1072,-209.438 64.1835,-51.3248 155.007,-75.5032 255.214,-75.5032zm225.402 112.817c-55.0996,-44.0599 -135.447,-64.8166 -225.402,-64.8166 -89.9552,0 -170.302,20.7567 -225.401,64.8166 -47.7603,38.191 -76.9205,94.93 -76.9205,172.125 0,93.8859 41.7059,220.182 107.698,315.925 53.1839,77.1591 121.517,133.502 194.623,133.502 73.1067,0 141.439,-56.3434 194.623,-133.504 65.993,-95.7414 107.699,-222.039 107.699,-315.924 0,-77.1957 -29.1614,-133.934 -76.9205,-172.125z"/>
  </g>
 </g>
 <rect class="fil2" width="2048" height="2048"/>
</svg>
